<svg id="1856d249-5788-4cc9-982d-5679871b4967" data-name="Слой 1" xmlns="http://www.w3.org/2000/svg"
     viewBox="0 0 234.75 62">
    <defs>
        <style>
            .a5b43ee2-3586-4993-8a94-e7dfd18e9537{opacity:0.7;}.e66874ef-1767-4d4b-a12d-15979da855a4{stroke:#fff;stroke-miterlimit:10;stroke-width:0.15px;}
        </style>
    </defs>
    <rect class="c3cac7aa-5804-4900-9f86-66c353bc7b7f" x="39.47" y="15.96" width="4.06" height="26.95" rx="2.03"
          ry="2.03"/>
    <path class="c3cac7aa-5804-4900-9f86-66c353bc7b7f"
          d="M-1867.29-3628.16a2,2,0,0,1-2,2h0a2,2,0,0,1-2-2V-3651a2,2,0,0,1,2-2h0a2,2,0,0,1,2,2"
          transform="translate(2056.04 3669)"/>
    <path class="c3cac7aa-5804-4900-9f86-66c353bc7b7f"
          d="M-2031-3630.13h-18.22a3,3,0,0,1-2.68-3.15V-3651a2,2,0,0,0-2-2h0a2,2,0,0,0-2,2v22.59a2.24,2.24,0,0,0,2,2.35l0.22,0H-2031a2,2,0,0,0,2-2h0A2,2,0,0,0-2031-3630.13Z"
          transform="translate(2056.04 3669)"/>
    <path class="c3cac7aa-5804-4900-9f86-66c353bc7b7f"
          d="M-1958.71-3653h0a2,2,0,0,0-2,2v22.88a2,2,0,0,0,2,2h0a2,2,0,0,0,2-2V-3651A2,2,0,0,0-1958.71-3653Z"
          transform="translate(2056.04 3669)"/>
    <path class="c3cac7aa-5804-4900-9f86-66c353bc7b7f"
          d="M-1935.71-3653h0a2,2,0,0,0-2,2v6.75a2.52,2.52,0,0,1-2.61,2.66h-9.71a2,2,0,0,0-2,2h0a2,2,0,0,0,2,2h10a2.52,2.52,0,0,1,2.33,2.65v6.76a2,2,0,0,0,2,2h0a2,2,0,0,0,2-2V-3651A2,2,0,0,0-1935.71-3653Z"
          transform="translate(2056.04 3669)"/>
    <path class="c3cac7aa-5804-4900-9f86-66c353bc7b7f"
          d="M-1975.23-3641.72h0a2.1,2.1,0,0,0-2.09,2.09v7.52a2.18,2.18,0,0,1-2.49,2h-7a8.81,8.81,0,0,1-9.12-7.16s-1.63-6.29,3.69-10l0.06,0a8.88,8.88,0,0,1,5.65-1.63h10.25a2,2,0,0,0,2-2h0a2,2,0,0,0-2-2H-1987a13.6,13.6,0,0,0-9.92,4.28,11.65,11.65,0,0,0-2.53,4.59c-0.92,3.2-1.83,9.38,2.76,14.37l0,0a13.55,13.55,0,0,0,9.43,3.74h12.48a1.62,1.62,0,0,0,1.62-1.62v-12A2.1,2.1,0,0,0-1975.23-3641.72Z"
          transform="translate(2056.04 3669)"/>
    <g class="a5b43ee2-3586-4993-8a94-e7dfd18e9537">
        <path class="e66874ef-1767-4d4b-a12d-15979da855a4" d="M-2056-3619.42h0.53v7.77H-2056v-7.77Z"
              transform="translate(2056.04 3669)"/>
        <path class="e66874ef-1767-4d4b-a12d-15979da855a4"
              d="M-2053-3618.69a0.42,0.42,0,0,1,.43-0.42,0.42,0.42,0,0,1,.43.42,0.43,0.43,0,0,1-.43.43A0.43,0.43,0,0,1-2053-3618.69Zm0.16,1.71h0.53v5.32h-0.53V-3617Z"
              transform="translate(2056.04 3669)"/>
        <path class="e66874ef-1767-4d4b-a12d-15979da855a4"
              d="M-2044.55-3617v5.07a2.45,2.45,0,0,1-2.65,2.5,2.62,2.62,0,0,1-2.51-1.28l0.47-.27a2,2,0,0,0,2,1,1.9,1.9,0,0,0,2.12-2v-1a2.52,2.52,0,0,1-2.29,1.35,2.74,2.74,0,0,1-2.76-2.78,2.74,2.74,0,0,1,2.76-2.78,2.52,2.52,0,0,1,2.29,1.35V-3617h0.53Zm-0.53,2.66a2.24,2.24,0,0,0-2.26-2.27,2.24,2.24,0,0,0-2.26,2.27,2.24,2.24,0,0,0,2.26,2.27A2.24,2.24,0,0,0-2045.08-3614.31Z"
              transform="translate(2056.04 3669)"/>
        <path class="e66874ef-1767-4d4b-a12d-15979da855a4"
              d="M-2037.5-3615v3.31H-2038V-3615a1.47,1.47,0,0,0-1.56-1.62,1.85,1.85,0,0,0-1.86,2.12v2.81H-2042v-7.45h0.53v3.14a2,2,0,0,1,1.91-1.13A2,2,0,0,1-2037.5-3615Z"
              transform="translate(2056.04 3669)"/>
        <path class="e66874ef-1767-4d4b-a12d-15979da855a4"
              d="M-2033.95-3616.45v3.46c0,0.94.5,1,1.59,0.86v0.48c-1.39.21-2.13-.13-2.13-1.34v-3.46h-1.17V-3617h1.17v-1.33l0.54-.16v1.49h1.59v0.52h-1.59Z"
              transform="translate(2056.04 3669)"/>
        <path class="e66874ef-1767-4d4b-a12d-15979da855a4"
              d="M-2026.79-3614.31a2.76,2.76,0,0,1,2.8-2.78,2.76,2.76,0,0,1,2.79,2.78,2.76,2.76,0,0,1-2.79,2.78A2.76,2.76,0,0,1-2026.79-3614.31Zm5,0a2.23,2.23,0,0,0-2.25-2.27,2.24,2.24,0,0,0-2.26,2.27A2.24,2.24,0,0,0-2024-3612,2.23,2.23,0,0,0-2021.74-3614.31Z"
              transform="translate(2056.04 3669)"/>
        <path class="e66874ef-1767-4d4b-a12d-15979da855a4"
              d="M-2018.3-3617.26v0.29h1.59v0.52h-1.59v4.8h-0.54v-4.8h-0.92V-3617h0.92v-0.29a1.78,1.78,0,0,1,2.13-2v0.51A1.28,1.28,0,0,0-2018.3-3617.26Z"
              transform="translate(2056.04 3669)"/>
        <path class="e66874ef-1767-4d4b-a12d-15979da855a4"
              d="M-2010.1-3616.45v3.46c0,0.94.5,1,1.59,0.86v0.48c-1.39.21-2.13-.13-2.13-1.34v-3.46h-1.17V-3617h1.17v-1.33l0.54-.16v1.49h1.59v0.52h-1.59Z"
              transform="translate(2056.04 3669)"/>
        <path class="e66874ef-1767-4d4b-a12d-15979da855a4"
              d="M-2001.83-3615v3.31h-0.54V-3615a1.47,1.47,0,0,0-1.56-1.62,1.85,1.85,0,0,0-1.86,2.12v2.81h-0.53v-7.45h0.53v3.14a2,2,0,0,1,1.91-1.13A2,2,0,0,1-2001.83-3615Z"
              transform="translate(2056.04 3669)"/>
        <path class="e66874ef-1767-4d4b-a12d-15979da855a4"
              d="M-1994.39-3614.29c0,0.08,0,.17,0,0.26h-4.82a2.17,2.17,0,0,0,2.26,2,2,2,0,0,0,1.84-1l0.47,0.28a2.62,2.62,0,0,1-2.32,1.2,2.69,2.69,0,0,1-2.8-2.78,2.68,2.68,0,0,1,2.76-2.78A2.67,2.67,0,0,1-1994.39-3614.29Zm-4.83-.27h4.28a2.07,2.07,0,0,0-2.08-2A2.15,2.15,0,0,0-1999.23-3614.56Z"
              transform="translate(2056.04 3669)"/>
        <path class="e66874ef-1767-4d4b-a12d-15979da855a4"
              d="M-1987.57-3617.26v0.29h1.59v0.52h-1.59v4.8h-0.54v-4.8H-1989V-3617h0.92v-0.29a1.78,1.78,0,0,1,2.13-2v0.51A1.28,1.28,0,0,0-1987.57-3617.26Z"
              transform="translate(2056.04 3669)"/>
        <path class="e66874ef-1767-4d4b-a12d-15979da855a4"
              d="M-1979.89-3617v5.32h-0.53v-1a2,2,0,0,1-1.91,1.13,2,2,0,0,1-2.06-2.13V-3617h0.54v3.31a1.47,1.47,0,0,0,1.56,1.62,1.85,1.85,0,0,0,1.86-2.12V-3617h0.53Z"
              transform="translate(2056.04 3669)"/>
        <path class="e66874ef-1767-4d4b-a12d-15979da855a4"
              d="M-1976.2-3616.45v3.46c0,0.94.5,1,1.59,0.86v0.48c-1.39.21-2.13-.13-2.13-1.34v-3.46h-1.17V-3617h1.17v-1.33l0.54-.16v1.49h1.59v0.52h-1.59Z"
              transform="translate(2056.04 3669)"/>
        <path class="e66874ef-1767-4d4b-a12d-15979da855a4"
              d="M-1968.07-3617v5.32h-0.53v-1a2,2,0,0,1-1.91,1.13,2,2,0,0,1-2.06-2.13V-3617h0.54v3.31a1.47,1.47,0,0,0,1.56,1.62,1.85,1.85,0,0,0,1.86-2.12V-3617h0.53Z"
              transform="translate(2056.04 3669)"/>
        <path class="e66874ef-1767-4d4b-a12d-15979da855a4"
              d="M-1963.21-3617.05v0.51a1.72,1.72,0,0,0-1.78,1.93v3h-0.53V-3617h0.53v1A1.79,1.79,0,0,1-1963.21-3617.05Z"
              transform="translate(2056.04 3669)"/>
        <path class="e66874ef-1767-4d4b-a12d-15979da855a4"
              d="M-1956.52-3614.29c0,0.08,0,.17,0,0.26h-4.82a2.17,2.17,0,0,0,2.26,2,2,2,0,0,0,1.84-1l0.47,0.28a2.62,2.62,0,0,1-2.32,1.2,2.69,2.69,0,0,1-2.8-2.78,2.68,2.68,0,0,1,2.76-2.78A2.67,2.67,0,0,1-1956.52-3614.29Zm-4.83-.27h4.28a2.07,2.07,0,0,0-2.08-2A2.15,2.15,0,0,0-1961.36-3614.56Z"
              transform="translate(2056.04 3669)"/>
    </g>
    <path class="c3cac7aa-5804-4900-9f86-66c353bc7b7f"
          d="M-1900-3653.05h-20.74a2.08,2.08,0,0,0-2.11,2,2.08,2.08,0,0,0,2.11,2h3.74c1,0,1.77,0,2,0a2.71,2.71,0,0,1,2.55,2.92v17.89a2.08,2.08,0,0,0,2.11,2h0a2.08,2.08,0,0,0,2.11-2V-3646a2.71,2.71,0,0,1,2.55-2.92c0.19,0,1,0,2,0h3.74a2.08,2.08,0,0,0,2.11-2A2.08,2.08,0,0,0-1900-3653.05Z"
          transform="translate(2056.04 3669)"/>
    <path class="c3cac7aa-5804-4900-9f86-66c353bc7b7f"
          d="M-1835.89-3653h-20.54a2.06,2.06,0,0,0-2.09,2,2.06,2.06,0,0,0,2.09,2h3.7c0.95,0,1.75,0,1.95,0a2.7,2.7,0,0,1,2.53,2.91v17.84a2.06,2.06,0,0,0,2.09,2h0a2.06,2.06,0,0,0,2.09-2V-3646a2.7,2.7,0,0,1,2.53-2.91c0.19,0,1,0,1.95,0h3.7a2.06,2.06,0,0,0,2.09-2A2.06,2.06,0,0,0-1835.89-3653Z"
          transform="translate(2056.04 3669)"/>
    <path class="c3cac7aa-5804-4900-9f86-66c353bc7b7f"
          d="M-1850.82-3667.25H-1851a28.9,28.9,0,0,0-4.05-.51,26.57,26.57,0,0,0-3.57,0,29.87,29.87,0,0,0-8.52,1.9,30,30,0,0,0-5.21,2.53,33,33,0,0,0-6.14,4.95,26.17,26.17,0,0,0-3,3.81,28.47,28.47,0,0,0-3.93,8.78,25.46,25.46,0,0,0-.68,3.94,27.63,27.63,0,0,0-.11,3.57,29.33,29.33,0,0,0,.42,3.8,29.49,29.49,0,0,0,1.76,6.11,28,28,0,0,0,5.71,8.8,31.08,31.08,0,0,0,10,7.08,30.19,30.19,0,0,0,5.71,1.83,29.65,29.65,0,0,0,3.59.58c0.67,0.07,1.34.11,2,.14s1.39,0,2.08,0a31,31,0,0,0,4.81-.45,30.54,30.54,0,0,0,9.65-3.35,28.65,28.65,0,0,0,11.62-11.57,27,27,0,0,0,2.76-7.89c0.13-.67.2-1.34,0.29-2s0.17-1.42.29-2.12a2.14,2.14,0,0,1,1.47-1.71,2.11,2.11,0,0,1,2.55,1,2.24,2.24,0,0,1,.22,1.35c-0.12.74-.2,1.49-0.31,2.23a30.82,30.82,0,0,1-4.84,12.67,32.74,32.74,0,0,1-4.27,5.12,32.63,32.63,0,0,1-7.64,5.59,34.67,34.67,0,0,1-8.62,3.18,36.93,36.93,0,0,1-4,.66,33.27,33.27,0,0,1-5.17.17,34.66,34.66,0,0,1-17.22-5.2,33.24,33.24,0,0,1-8-6.91,31.08,31.08,0,0,1-6.36-12.47,28.51,28.51,0,0,1-.6-3.34,27.43,27.43,0,0,1-.25-4.1c0-.77.06-1.55,0.13-2.32a28,28,0,0,1,.47-3.25,28.87,28.87,0,0,1,5.85-12.41,34.35,34.35,0,0,1,6.43-6.12,31.92,31.92,0,0,1,4.49-2.66,31,31,0,0,1,7.66-2.69,24.68,24.68,0,0,1,2.91-.38,24.38,24.38,0,0,1,3.39-.09,16.37,16.37,0,0,1,4.92.88,6.81,6.81,0,0,1,1.3.61A0.24,0.24,0,0,1-1850.82-3667.25Z"
          transform="translate(2056.04 3669)"/>
    <path class="c3cac7aa-5804-4900-9f86-66c353bc7b7f"
          d="M-1867.29-3628.16a2,2,0,0,1-2,2h0a2,2,0,0,1-2-2V-3651a2,2,0,0,1,2-2h0a2,2,0,0,1,2,2"
          transform="translate(2056.04 3669)"/>
    <path class="c3cac7aa-5804-4900-9f86-66c353bc7b7f"
          d="M-1835.89-3653h-20.54a2.06,2.06,0,0,0-2.09,2,2.06,2.06,0,0,0,2.09,2h3.7c0.95,0,1.75,0,1.95,0a2.7,2.7,0,0,1,2.53,2.91v17.84a2.06,2.06,0,0,0,2.09,2h0a2.06,2.06,0,0,0,2.09-2V-3646a2.7,2.7,0,0,1,2.53-2.91c0.19,0,1,0,1.95,0h3.7a2.06,2.06,0,0,0,2.09-2A2.06,2.06,0,0,0-1835.89-3653Z"
          transform="translate(2056.04 3669)"/>
    <path class="c3cac7aa-5804-4900-9f86-66c353bc7b7f"
          d="M-1867.29-3628.16a2,2,0,0,1-2,2h0a2,2,0,0,1-2-2V-3651a2,2,0,0,1,2-2h0a2,2,0,0,1,2,2"
          transform="translate(2056.04 3669)"/>
    <path class="c3cac7aa-5804-4900-9f86-66c353bc7b7f"
          d="M-1835.89-3653h-20.54a2.06,2.06,0,0,0-2.09,2,2.06,2.06,0,0,0,2.09,2h3.7c0.95,0,1.75,0,1.95,0a2.7,2.7,0,0,1,2.53,2.91v17.84a2.06,2.06,0,0,0,2.09,2h0a2.06,2.06,0,0,0,2.09-2V-3646a2.7,2.7,0,0,1,2.53-2.91c0.19,0,1,0,1.95,0h3.7a2.06,2.06,0,0,0,2.09-2A2.06,2.06,0,0,0-1835.89-3653Z"
          transform="translate(2056.04 3669)"/>
</svg>